# xmcd CD database file
#
# Track frame offsets:
#	150
#	19252
#	37922
#
# Disc length: 586 seconds
#
# Revision: 0
# Processed by: cddbd v1.5PL3 Copyright (c) Steve Scherf et al.
# Submitted via: CDex 1.51
#
DISCID=19024803
DTITLE=THE JERRY LEE PHANTOM - RUDIE'S PAPA
DYEAR=2000
DGENRE=Rock
TTITLE0=RUDIE'S PAPA
TTITLE1=アリスタ
TTITLE2=理由なき反抗 -outro-
EXTD=YEAR: 2000
EXTT0=
EXTT1=
EXTT2=
PLAYORDER=
